<?xml version="1.0" encoding="utf-8"?>
<!-- Generator: Adobe Illustrator 13.0.2, SVG Export Plug-In  -->
<!DOCTYPE svg PUBLIC "-//W3C//DTD SVG 1.1//EN" "http://www.w3.org/Graphics/SVG/1.1/DTD/svg11.dtd" [
	<!ENTITY ns_flows "http://ns.adobe.com/Flows/1.0/">
]>
<svg version="1.1"
	 xmlns="http://www.w3.org/2000/svg" xmlns:xlink="http://www.w3.org/1999/xlink" xmlns:a="http://ns.adobe.com/AdobeSVGViewerExtensions/3.0/"
	 x="0px" y="0px" width="409px" height="172px" viewBox="-0.121 -0.96 409 172" enable-background="new -0.121 -0.96 409 172"
	 xml:space="preserve">
<defs>
</defs>
<path fill="#DB2128" d="M372.617,154.389c-0.937,0.761-2.194,1.469-3.571,2.129c-2.282,1.141-4.757,2.301-7.012,2.301
	c-1.544,0-2.667-0.415-3.527-1.126c-0.401-0.331-0.7-0.69-0.93-0.993c-0.19-0.251-0.361-0.507-0.546-0.743
	c-0.588-0.758-1.178-1.86-1.752-3.235c-3.589,3.536-9.993,6.526-19.305,6.526c-7.875,0-14.108-2-18.566-6.225
	c-4.346-4.11-6.822-10.027-6.822-18.198V88.176c0-1.976,0.398-3.315,1.813-4.375c1.46-1.12,4.255-1.497,7.813-1.497
	c3.473,0,6.275,0.384,7.728,1.514c1.396,1.059,1.789,2.393,1.789,4.359v44.504c0,6.622,2.714,9.892,10.536,9.892
	c7.837,0,12.467-4.671,12.467-11.072V88.176c0-1.976,0.398-3.315,1.813-4.375c1.455-1.117,4.136-1.497,7.706-1.497
	c3.472,0,6.275,0.384,7.728,1.514c1.396,1.059,1.789,2.393,1.789,4.359v51.796c0,1.712,0.27,3.237,0.592,4.464
	c0.313,1.192,0.674,2.095,0.88,2.608c0.637,1.278,1.21,2.524,1.21,4.188C374.447,152.629,373.485,153.682,372.617,154.389
	L372.617,154.389z"/>
<path fill="#DB2128" d="M287.272,100.421v51.724c0,1.975-0.398,3.313-1.813,4.376c-1.457,1.115-4.249,1.496-7.704,1.496
	c-3.574,0-6.381-0.383-7.835-1.514c-1.398-1.059-1.791-2.394-1.791-4.358v-50.34l-8.825,0.638c-7.896,0.572-8.207-6.132-8.207-9.859
	c0-7.373,2.72-10.013,7.604-10.014h38.044c3.729,0,6.542,1.187,7.647,6.518c1.23,5.926,0.725,10.052-5.905,10.523L287.272,100.421
	L287.272,100.421z"/>
<path fill="#DB2128" d="M406.945,156.679c-1.458,1.116-4.249,1.496-7.705,1.496c-3.572,0-6.381-0.382-7.834-1.514
	c-1.397-1.059-1.79-2.393-1.79-4.357V88.176c0-1.976,0.397-3.315,1.813-4.375c1.459-1.12,4.256-1.498,7.812-1.498
	c3.473,0,6.275,0.385,7.728,1.514c1.397,1.059,1.79,2.394,1.79,4.36v64.128C408.758,154.279,408.361,155.619,406.945,156.679
	L406.945,156.679z"/>
<path fill="#DB2128" d="M10.106,47.4h50.559c4.955,0,8.694,1.566,10.164,8.606c1.635,7.826,0.961,13.276-7.849,13.899l-15.873,1.132
	c11.681,73.819,79.989,97.88,117.181,18.376c6.155-13.159,8.169-15.556,14.912-13.882c9.14,2.268,10.39,6.968,6.036,20.236
	C153.08,193.779,45.007,203.603,23.802,72.716l-12.896,0.929C0.415,74.4,0,65.547,0,60.623C0,50.888,3.615,47.4,10.106,47.4
	L10.106,47.4z"/>
<path fill="#DB2128" d="M193.931,0c10.364,0,18.766,8.4,18.766,18.765c0,10.363-8.401,18.765-18.766,18.765
	c-10.363,0-18.765-8.401-18.765-18.765C175.166,8.4,183.567,0,193.931,0L193.931,0z"/>
</svg>
